<?xml version="1.0" encoding="UTF-8"?><svg id="Capa_1" xmlns="http://www.w3.org/2000/svg" viewBox="0 0 80 80"><path d="m10.74,11.47c2.39,0,4.78.01,7.17-.02.55,0,.89.07.99.73.08.53.36,1.03.58,1.62-.25.02-.49.04-.73.04h-6.89c-1.82,0-2.77.94-2.77,2.73v44.49c0,1.76.95,2.72,2.71,2.72h24.15c-.28.84-.54,1.58-.82,2.38H10.76c-2.61,0-4.04-1.43-4.04-4.05V15.46c0-2.56,1.44-3.99,4.02-3.99Z" fill="#fce3b4"/><path d="m38.14,11.47c2.51,0,5.01,0,7.52,0,2.35,0,3.83,1.47,3.84,3.81,0,5.2,0,10.4-.01,15.6,0,.32-.13.66-.25.97-.34.86-.73,1.71-1.04,2.58-.18.5-.48.76-1.08.77v-18.57c0-1.91-.89-2.79-2.82-2.79h-7.54c.28-.81.54-1.55.82-2.34.16-.01.36-.03.56-.03Z" fill="#fce3b4"/><path d="m35.16,10.3c.23,1.79-1.29,4.24-3.73,4.62-1.16.17-2.36.12-3.54.12-1.05,0-2.1.04-3.12-.13-2.19-.35-3.89-2.51-3.69-4.61h2.97c1.25,0,1.56-.28,1.72-1.49.16-1.17,1.08-2.04,2.24-2.09s2.16.73,2.42,1.89c.03.14.05.27.07.41.12.91.49,1.26,1.41,1.27,1.09.02,2.17,0,3.25,0Z" fill="#f9ba43"/><path d="m25.75,45.96c-.69.03-1.16.49-1.19,1.12-.04.61.42,1.19,1.08,1.22,1.25.05,2.51.05,3.76,0,.66-.02,1.12-.61,1.09-1.22-.03-.62-.5-1.09-1.19-1.12-.58-.02-1.16,0-1.74,0s-1.21-.02-1.81,0Zm-1.2-14.27c.01.71.57,1.18,1.43,1.19h12.58c.88-.01,1.42-.47,1.44-1.18.01-.74-.53-1.19-1.47-1.19-2.08-.01-4.17-.01-6.25-.01s-4.22,0-6.32.01c-.88,0-1.42.47-1.41,1.18Zm1.22,22.56c.18.01.37,0,.55,0,.17,0,.33.01.49,0,.78-.03,1.29-.48,1.3-1.15.02-.67-.48-1.17-1.25-1.22-.37-.02-.74-.02-1.11,0-.72.05-1.2.55-1.2,1.19.01.65.49,1.12,1.22,1.17Zm2.41,2.41c-.83-.04-1.67-.04-2.5,0-.68.04-1.13.56-1.13,1.18.01.62.47,1.1,1.16,1.16.41.04.83.01,1.25.01h0c.41-.01.84.02,1.25-.02.67-.07,1.07-.52,1.08-1.14.01-.65-.41-1.15-1.11-1.19Zm-2.16-34.49h12.51c.92,0,1.48-.47,1.47-1.2-.01-.74-.56-1.17-1.5-1.17h-12.44c-.94,0-1.49.44-1.51,1.17-.01.73.56,1.2,1.47,1.2Zm2.68,13.08c-.95,0-1.89-.01-2.84.01-.78.01-1.29.48-1.31,1.15-.01.69.52,1.21,1.32,1.21,1.9.02,3.8.02,5.7,0,.76,0,1.28-.5,1.3-1.16.02-.68-.52-1.19-1.32-1.2-.95-.01-1.9-.01-2.85-.01Zm2.85-10.7c-1.9,0-3.8,0-5.7,0-.76.01-1.28.5-1.3,1.16-.01.7.52,1.19,1.32,1.2.95.02,1.9.01,2.85.01h2.78c.82-.01,1.36-.47,1.37-1.16.02-.68-.53-1.2-1.32-1.21Zm-5.63,19.02c1.85.01,3.71.01,5.56,0,.86-.01,1.41-.51,1.39-1.22,0-.69-.53-1.14-1.37-1.15-.93-.02-1.85-.01-2.78-.01s-1.85-.01-2.77.01c-.88.01-1.41.49-1.4,1.2.02.69.54,1.16,1.37,1.17Zm10.3,17.78H11.52V16.25c.24-.01.45-.03.65-.03,3.02,0,6.03,0,9.05.01.33,0,.69.09.98.25,1.13.61,2.32.95,3.59.94,1.95-.02,3.9-.01,5.84-.14.71-.04,1.4-.44,2.11-.65.56-.16,1.14-.39,1.71-.39,3.06-.04,6.12-.02,9.26-.02.01.28.04.52.04.76v18.59c0,.91-.49,1.24-1.32.89-.77-.32-1.53-.66-2.3-.98-.99-.42-1.92-.3-2.71.45-.85.81-1.69,1.64-2.5,2.51-.72.76-.85,1.67-.45,2.64.33.8.7,1.57.99,2.38.1.26.08.62-.02.89-.4,1.05-.84,2.1-1.31,3.13-.12.27-.35.54-.61.66-.7.34-1.44.62-2.18.89-1.14.41-1.73,1.23-1.78,2.41-.04,1.11-.04,2.23.01,3.34.04,1.12.63,1.91,1.69,2.33.86.34,1.91.49,2.52,1.08s.78,1.63,1.15,2.48c.09.2.17.41.29.68Zm-14.29-39.66c.38-.52.33-1.05-.1-1.52-.52-.56-1.33-.49-1.85.19-.89,1.15-1.75,2.32-2.66,3.53-.13-.09-.18-.13-.24-.17-.65-.46-1.31-.43-1.73.08-.44.51-.37,1.15.19,1.73.34.35.68.7,1.04,1.03.58.52,1.29.51,1.76-.1,1.22-1.57,2.4-3.17,3.59-4.77Zm-.06,32.14c.22-.32.27-.91.14-1.27-.33-.86-1.42-.9-2.03-.11-.89,1.14-1.75,2.32-2.66,3.53-.12-.09-.18-.12-.24-.16-.67-.48-1.27-.46-1.72.06-.44.51-.38,1.15.17,1.73.32.34.64.67.98.99.65.59,1.38.55,1.92-.15,1.17-1.52,2.34-3.05,3.44-4.62Zm-.04-21.3c.5-.68.44-1.35-.13-1.79-.56-.43-1.27-.28-1.79.4-.85,1.13-1.7,2.26-2.58,3.44-.11-.07-.17-.1-.22-.14-.67-.48-1.29-.47-1.74.04-.46.51-.39,1.17.2,1.77.29.3.58.6.88.89.71.69,1.41.66,2.01-.12,1.13-1.49,2.26-2.99,3.37-4.49Zm.04,10.6c.21-.29.29-.81.19-1.15-.27-.94-1.45-1.05-2.09-.23-.89,1.16-1.75,2.33-2.65,3.54-.88-.65-1.48-.66-1.97-.1-.47.56-.36,1.18.33,1.88.26.26.52.53.79.79.69.65,1.39.63,1.96-.11,1.17-1.52,2.33-3.05,3.44-4.62Z" fill="#fce3b4"/><path d="m60.2,52.99c.02,3.98-3.14,7.19-7.11,7.21-3.94.02-7.13-3.17-7.13-7.11s3.14-7.12,7.1-7.13c3.91-.02,7.12,3.14,7.14,7.03Z" fill="#fce3b4"/><path d="m38.9,61.38c-.52-1.41-1.09-2.8-1.72-4.16-.19-.42-.56-.86-.96-1.07-.86-.45-1.78-.79-2.7-1.11-.48-.17-.65-.44-.62-.92.04-.88-.22-1.93.18-2.59.37-.6,1.44-.76,2.2-1.11.32-.15.64-.28.97-.4.52-.19.77-.58.97-1.09.26-.69.54-1.38.82-2.07l1.9.6c-.75,1.74-1.15,3.64-1.12,5.63.12,8.1,6.48,14.33,14.55,14.23,7.79-.1,14.05-6.59,13.95-14.47-.02-1.93-.44-3.77-1.17-5.45l1.92-.52c.29.7.6,1.4.92,2.1.18.4.54.81.93,1.01.79.42,1.65.75,2.5,1.03.63.21.92.56.86,1.21-.03.23,0,.46,0,.69,0,1.86.04,1.95-1.68,2.51-1.68.54-2.81,1.37-3.13,3.24-.16.9-.72,1.75-1.18,2.57-.32.59-.35,1.12-.09,1.72.4.89.79,1.78,1.12,2.7.08.22.03.61-.12.78-.56.62-1.16,1.2-1.8,1.74-.18.15-.59.19-.84.1-.91-.33-1.8-.73-2.69-1.13-.53-.23-1-.16-1.52.08-1.35.61-2.72,1.18-4.1,1.7-.54.21-.92.47-1.13,1.02-.35.93-.72,1.86-1.14,2.76-.11.23-.45.36-.69.53,0,.01-.04.01-.07.01-2.7.25-2.77.2-3.77-2.28-.09-.24-.21-.47-.27-.72-.22-.8-.77-1.15-1.54-1.42-1.29-.44-2.54-1-3.77-1.58-.55-.26-1.03-.33-1.59-.09-.89.39-1.8.73-2.68,1.15-.41.19-.68.12-.97-.19-.53-.55-1.06-1.1-1.61-1.64-.3-.3-.35-.57-.15-.98.42-.87.83-1.76,1.12-2.68.14-.44.08-1-.08-1.44Z" fill="#f7a914"/><path d="m43.28,38.99c.52.23.99.18,1.52-.07,1.37-.61,2.76-1.17,4.16-1.71.52-.2.88-.47,1.08-1,.36-.95.74-1.9,1.16-2.82.1-.22.42-.33.64-.48.02-.01.05-.01.07-.01.9.03,1.99-.25,2.66.17.63.39.82,1.49,1.2,2.29.14.29.19.65.39.89.29.35.62.74,1.02.92,1.39.63,2.8,1.22,4.23,1.75.41.15.96.2,1.37.07.95-.3,1.86-.72,2.76-1.14.39-.18.65-.15.98.14,2.1,1.88,2.11,1.88,1.01,4.42-.13.32-.35.63-.38.96-.05.46-.07.97.09,1.39.26.71.54,1.42.83,2.12l-1.92.52c-2.21-5.07-7.3-8.66-13.09-8.59-5.91.07-10.97,3.64-13.12,8.65l-1.9-.6c.28-.68.56-1.36.87-2.03.26-.56.32-1.04.07-1.59-.39-.89-.74-1.8-1.14-2.68-.18-.38-.14-.64.16-.91.61-.57,1.18-1.18,1.81-1.73.16-.13.51-.18.72-.1.92.36,1.84.76,2.75,1.17Z" fill="#f7a914"/><path d="m53.22,64.95c-6.61.05-11.99-5.22-12.02-11.79-.03-6.64,5.22-11.91,11.91-11.96,6.46-.05,11.79,5.26,11.84,11.82.05,6.51-5.23,11.87-11.73,11.93Zm-.09-21.37c-5.28-.01-9.53,4.19-9.55,9.45,0,5.28,4.2,9.52,9.47,9.54,5.27.01,9.51-4.22,9.52-9.49.02-5.23-4.22-9.49-9.44-9.5Z" fill="#f7a914"/><path d="m53.06,45.96c-3.96,0-7.1,3.17-7.1,7.13s3.19,7.13,7.13,7.11c3.97-.02,7.13-3.23,7.11-7.21-.02-3.89-3.23-7.05-7.14-7.03Zm-9.48,7.07c.02-5.26,4.27-9.46,9.55-9.45,5.22.01,9.46,4.27,9.44,9.5-.01,5.27-4.25,9.5-9.52,9.49-5.27-.02-9.48-4.26-9.47-9.54Z" fill="#203c7b"/><path d="m53.37,67.32c-8.07.1-14.43-6.13-14.55-14.23-.03-1.99.37-3.89,1.12-5.63,2.15-5.01,7.21-8.58,13.12-8.65,5.79-.07,10.88,3.52,13.09,8.59.73,1.68,1.15,3.52,1.17,5.45.1,7.88-6.16,14.37-13.95,14.47Zm-12.17-14.16c.03,6.57,5.41,11.84,12.02,11.79,6.5-.06,11.78-5.42,11.73-11.93-.05-6.56-5.38-11.87-11.84-11.82-6.69.05-11.94,5.32-11.91,11.96Z" fill="#203c7b"/><path d="m31.57,37.62c-1.9.02-3.8.02-5.7,0-.8,0-1.33-.52-1.32-1.21.02-.67.53-1.14,1.31-1.15.95-.02,1.89-.01,2.84-.01s1.9,0,2.85.01c.8.01,1.34.52,1.32,1.2-.02.66-.54,1.16-1.3,1.16Z" fill="#203c7b"/><path d="m26.96,59.01c-.42,0-.84.03-1.25-.01-.69-.06-1.15-.54-1.16-1.16,0-.62.45-1.14,1.13-1.18.83-.04,1.67-.04,2.5,0,.7.04,1.12.54,1.11,1.19-.01.62-.41,1.07-1.08,1.14-.41.04-.84.01-1.25.01h0Z" fill="#203c7b"/><path d="m38.53,22.17h-12.51c-.91,0-1.48-.47-1.47-1.2.02-.73.57-1.17,1.51-1.17h12.44c.94,0,1.49.43,1.5,1.17.01.73-.55,1.2-1.47,1.2Z" fill="#203c7b"/><path d="m25.98,32.88c-.86-.01-1.42-.48-1.43-1.19s.53-1.18,1.41-1.18c2.1-.01,4.21-.01,6.32-.01s4.17,0,6.25.01c.94,0,1.48.45,1.47,1.19-.02.71-.56,1.17-1.44,1.18h-12.58Z" fill="#203c7b"/><path d="m29.4,48.3c-1.25.05-2.51.05-3.76,0-.66-.03-1.12-.61-1.08-1.22.03-.63.5-1.09,1.19-1.12.6-.02,1.21,0,1.81,0s1.16-.02,1.74,0c.69.03,1.16.5,1.19,1.12.03.61-.43,1.2-1.09,1.22Z" fill="#203c7b"/><path d="m31.48,43.57c-1.85.01-3.71.01-5.56,0-.83-.01-1.35-.48-1.37-1.17-.01-.71.52-1.19,1.4-1.2.92-.02,1.85-.01,2.77-.01s1.85-.01,2.78.01c.84.01,1.36.46,1.37,1.15.02.71-.53,1.21-1.39,1.22Z" fill="#203c7b"/><path d="m25.75,51.89c.37-.03.74-.03,1.11,0,.77.05,1.27.55,1.25,1.22-.01.67-.52,1.12-1.3,1.15-.16.01-.32,0-.49,0-.18,0-.37.01-.55,0-.73-.05-1.21-.52-1.22-1.17,0-.64.48-1.14,1.2-1.19Z" fill="#203c7b"/><path d="m25.85,24.55c1.9,0,3.8,0,5.7,0,.79.01,1.34.53,1.32,1.21,0,.69-.55,1.15-1.37,1.16h-2.78c-.95,0-1.9.01-2.85-.01-.8-.01-1.33-.5-1.32-1.2.02-.66.54-1.15,1.3-1.16Z" fill="#203c7b"/><path d="m21.93,21.69c-1.19,1.6-2.37,3.2-3.59,4.77-.47.61-1.18.62-1.76.1-.36-.33-.7-.68-1.04-1.03-.56-.58-.63-1.22-.19-1.73.42-.51,1.08-.54,1.73-.08.06.04.11.08.24.17.91-1.21,1.77-2.38,2.66-3.53.52-.68,1.33-.75,1.85-.19.43.47.48,1,.1,1.52Z" fill="#203c7b"/><path d="m22.01,52.56c.13.36.08.95-.14,1.27-1.1,1.57-2.27,3.1-3.44,4.62-.54.7-1.27.74-1.92.15-.34-.32-.66-.65-.98-.99-.55-.58-.61-1.22-.17-1.73.45-.52,1.05-.54,1.72-.06.06.04.12.07.24.16.91-1.21,1.77-2.39,2.66-3.53.61-.79,1.7-.75,2.03.11Z" fill="#203c7b"/><path d="m21.83,32.53c-1.11,1.5-2.24,3-3.37,4.49-.6.78-1.3.81-2.01.12-.3-.29-.59-.59-.88-.89-.59-.6-.66-1.26-.2-1.77.45-.51,1.07-.52,1.74-.04.05.04.11.07.22.14.88-1.18,1.73-2.31,2.58-3.44.52-.68,1.23-.83,1.79-.4.57.44.63,1.11.13,1.79Z" fill="#203c7b"/><path d="m22.06,41.98c.1.34.02.86-.19,1.15-1.11,1.57-2.27,3.1-3.44,4.62-.57.74-1.27.76-1.96.11-.27-.26-.53-.53-.79-.79-.69-.7-.8-1.32-.33-1.88.49-.56,1.09-.55,1.97.1.9-1.21,1.76-2.38,2.65-3.54.64-.82,1.82-.71,2.09.23Z" fill="#203c7b"/><path d="m45.66,11.47c-2.51,0-5.01,0-7.52,0-.2,0-.4.02-.56.03-.28.79-.54,1.53-.82,2.34h7.54c1.93,0,2.82.88,2.82,2.79v18.57c.6-.01.9-.27,1.08-.77.31-.87.7-1.72,1.04-2.58.12-.31.25-.65.25-.97.01-5.2.01-10.4.01-15.6-.01-2.34-1.49-3.81-3.84-3.81Zm-10.38,38.95c-.76.35-1.83.51-2.2,1.11-.4.66-.14,1.71-.18,2.59-.03.48.14.75.62.92.92.32,1.84.66,2.7,1.11.4.21.77.65.96,1.07.63,1.36,1.2,2.75,1.72,4.16.16.44.22,1,.08,1.44-.29.92-.7,1.81-1.12,2.68-.2.41-.15.68.15.98.55.54,1.08,1.09,1.61,1.64.29.31.56.38.97.19.88-.42,1.79-.76,2.68-1.15.56-.24,1.04-.17,1.59.09,1.23.58,2.48,1.14,3.77,1.58.77.27,1.32.62,1.54,1.42.06.25.18.48.27.72,1,2.48,1.07,2.53,3.77,2.28.03,0,.06,0,.07-.01.24-.17.58-.3.69-.53.42-.9.79-1.83,1.14-2.76.21-.55.59-.81,1.13-1.02,1.38-.52,2.75-1.09,4.1-1.7.52-.24.99-.31,1.52-.08.89.4,1.78.8,2.69,1.13.25.09.66.05.84-.1.64-.54,1.24-1.12,1.8-1.74.15-.17.2-.56.12-.78-.33-.92-.72-1.81-1.12-2.7-.26-.6-.23-1.13.09-1.72.46-.82,1.02-1.67,1.18-2.57.32-1.87,1.45-2.7,3.13-3.24,1.72-.56,1.69-.65,1.68-2.51,0-.23-.02-.46,0-.69.06-.65-.23-1-.86-1.21-.85-.28-1.71-.61-2.5-1.03-.39-.2-.75-.61-.93-1.01-.32-.7-.63-1.4-.92-2.1s-.57-1.41-.83-2.12c-.16-.42-.14-.93-.09-1.39.03-.33.25-.64.38-.96,1.1-2.54,1.09-2.54-1.01-4.42-.33-.29-.59-.32-.98-.14-.9.42-1.81.84-2.76,1.14-.41.13-.96.08-1.37-.07-1.43-.53-2.84-1.12-4.23-1.75-.4-.18-.73-.57-1.02-.92-.2-.24-.25-.6-.39-.89-.38-.8-.57-1.9-1.2-2.29-.67-.42-1.76-.14-2.66-.17-.02,0-.05,0-.07.01-.22.15-.54.26-.64.48-.42.92-.8,1.87-1.16,2.82-.2.53-.56.8-1.08,1-1.4.54-2.79,1.1-4.16,1.71-.53.25-1,.3-1.52.07-.91-.41-1.83-.81-2.75-1.17-.21-.08-.56-.03-.72.1-.63.55-1.2,1.16-1.81,1.73-.3.27-.34.53-.16.91.4.88.75,1.79,1.14,2.68.25.55.19,1.03-.07,1.59-.31.67-.59,1.35-.87,2.03-.28.69-.56,1.38-.82,2.07-.2.51-.45.9-.97,1.09-.33.12-.65.25-.97.4ZM18.75,13.84c.24,0,.48-.02.73-.04-.22-.59-.5-1.09-.58-1.62-.1-.66-.44-.73-.99-.73-2.39.03-4.78.01-7.17.02-2.58,0-4.02,1.43-4.02,3.99v46.65c0,2.62,1.43,4.05,4.04,4.05h24.37c.28-.8.54-1.54.82-2.38H11.8c-1.76,0-2.71-.96-2.71-2.72V16.57c0-1.79.95-2.73,2.77-2.73h6.89Zm7.04,3.58c-1.27.01-2.46-.33-3.59-.94-.29-.16-.65-.25-.98-.25-3.02-.02-6.03-.01-9.05-.01-.2,0-.41.02-.65.03v45.1h24.7c-.12-.27-.2-.48-.29-.68-.37-.85-.54-1.89-1.15-2.48s-1.66-.74-2.52-1.08c-1.06-.42-1.65-1.21-1.69-2.33-.05-1.11-.05-2.23-.01-3.34.05-1.18.64-2,1.78-2.41.74-.27,1.48-.55,2.18-.89.26-.12.49-.39.61-.66.47-1.03.91-2.08,1.31-3.13.1-.27.12-.63.02-.89-.29-.81-.66-1.58-.99-2.38-.4-.97-.27-1.88.45-2.64.81-.87,1.65-1.7,2.5-2.51.79-.75,1.72-.87,2.71-.45.77.32,1.53.66,2.3.98.83.35,1.32.02,1.32-.89v-18.59c0-.24-.03-.48-.04-.76-3.14,0-6.2-.02-9.26.02-.57,0-1.15.23-1.71.39-.71.21-1.4.61-2.11.65-1.94.13-3.89.12-5.84.14Zm-1.74-7.12h-2.97c-.2,2.1,1.5,4.26,3.69,4.61,1.02.17,2.07.13,3.12.13,1.18,0,2.38.05,3.54-.12,2.44-.38,3.96-2.83,3.73-4.62-1.08,0-2.16.01-3.25,0-.92-.01-1.29-.36-1.41-1.27-.02-.14-.04-.27-.07-.41-.26-1.16-1.26-1.94-2.42-1.89s-2.08.92-2.24,2.09c-.16,1.21-.47,1.49-1.72,1.49Zm-2.58-2.38c1.24.17,2.08-.05,2.74-1.4.81-1.67,2.49-2.32,4.35-2.15,1.83.17,3.18,1.15,3.89,2.85.25.58.53.76,1.12.71.58-.05,1.18-.11,1.73.03.6.14,1.15.5,1.72.76.27.13.55.35.82.35,2.53.03,5.06.09,7.59,0,3.72-.12,6.57,2.71,6.47,6.49-.11,4.69-.02,9.38-.02,14.07v.9c.86,0,1.67.01,2.47,0,1.42,0,2.47.59,2.83,1.99.46,1.74,1.35,2.97,3.23,3.27.05,0,.1.02.13.05,1.23.98,2.46.71,3.69-.01.26-.15.55-.24.83-.36.97-.4,1.88-.28,2.65.43.88.82,1.74,1.68,2.55,2.56.69.75.83,1.64.43,2.59-.38.92-1.06,1.83-1.07,2.75,0,.92.78,1.8,1.03,2.75.28,1.12.93,1.65,1.98,2.01,2.59.89,3.03,1.22,3.02,4.45,0,.67-.04,1.34-.11,2.01-.09.94-.59,1.6-1.45,1.97-.82.36-1.68.66-2.5,1.04-.23.1-.45.36-.56.6-.48,1.06-.92,2.13-1.34,3.21-.09.24-.1.58-.01.83.29.8.65,1.59.98,2.38.42.97.29,1.88-.41,2.65-.82.88-1.68,1.74-2.56,2.55-.77.71-1.68.84-2.65.42-.9-.39-1.79-1.04-2.69-1.06-.86-.01-1.71.78-2.61.99-1.26.3-1.96,1-2.21,2.22-.03.13-.11.26-.15.39-.39,1.33-1.17,2.24-2.61,2.45h-3.35c-1.47-.2-2.26-1.12-2.66-2.48-.15-.51-.34-1.02-.6-1.48-.16-.29-.44-.57-.73-.7-.74-.35-1.57-.5-2.24-.92-.95-.59-1.75-.47-2.7-.02-2.56,1.21-2.96,1.41-5.37-1.05-.36-.37-.72-.49-1.21-.48-8.26.01-16.51,0-24.76,0-3.78,0-5.67-1.4-6.75-5-.01-.05-.03-.09-.05-.13V14.23c.15-.48.26-.98.45-1.45.9-2.23,3.06-3.67,5.57-3.68,2.65-.02,5.3,0,7.94-.03.32,0,.63-.24.94-.38.54-.25,1.06-.53,1.6-.75.18-.07.42-.04.62-.02Z" fill="#203c7b"/></svg>